<svg id="visual" viewBox="0 0 960 540" width="960" height="540" xmlns="http://www.w3.org/2000/svg" xmlns:xlink="http://www.w3.org/1999/xlink" version="1.1"><rect x="0" y="0" width="960" height="540" fill="#1e1e1e"></rect><path d="M0 343L26.7 338.8C53.3 334.7 106.7 326.3 160 336.2C213.3 346 266.7 374 320 384.3C373.3 394.7 426.7 387.3 480 380.3C533.3 373.3 586.7 366.7 640 361.2C693.3 355.7 746.7 351.3 800 356.7C853.3 362 906.7 377 933.3 384.5L960 392L960 541L933.3 541C906.7 541 853.3 541 800 541C746.7 541 693.3 541 640 541C586.7 541 533.3 541 480 541C426.7 541 373.3 541 320 541C266.7 541 213.3 541 160 541C106.7 541 53.3 541 26.7 541L0 541Z" fill="#0078f0"></path><path d="M0 436L26.7 432.3C53.3 428.7 106.7 421.3 160 419C213.3 416.7 266.7 419.3 320 411.2C373.3 403 426.7 384 480 387.3C533.3 390.7 586.7 416.3 640 422.7C693.3 429 746.7 416 800 407.2C853.3 398.3 906.7 393.7 933.3 391.3L960 389L960 541L933.3 541C906.7 541 853.3 541 800 541C746.7 541 693.3 541 640 541C586.7 541 533.3 541 480 541C426.7 541 373.3 541 320 541C266.7 541 213.3 541 160 541C106.7 541 53.3 541 26.7 541L0 541Z" fill="#005ed8"></path><path d="M0 473L26.7 472.3C53.3 471.7 106.7 470.3 160 463.7C213.3 457 266.7 445 320 441.8C373.3 438.7 426.7 444.3 480 449.2C533.3 454 586.7 458 640 459.7C693.3 461.3 746.7 460.7 800 463.2C853.3 465.7 906.7 471.3 933.3 474.2L960 477L960 541L933.3 541C906.7 541 853.3 541 800 541C746.7 541 693.3 541 640 541C586.7 541 533.3 541 480 541C426.7 541 373.3 541 320 541C266.7 541 213.3 541 160 541C106.7 541 53.3 541 26.7 541L0 541Z" fill="#0044c0"></path><path d="M0 503L26.7 502.8C53.3 502.7 106.7 502.3 160 500.8C213.3 499.3 266.7 496.7 320 494.2C373.3 491.7 426.7 489.3 480 492C533.3 494.7 586.7 502.3 640 500.7C693.3 499 746.7 488 800 486.7C853.3 485.3 906.7 493.7 933.3 497.8L960 502L960 541L933.3 541C906.7 541 853.3 541 800 541C746.7 541 693.3 541 640 541C586.7 541 533.3 541 480 541C426.7 541 373.3 541 320 541C266.7 541 213.3 541 160 541C106.7 541 53.3 541 26.7 541L0 541Z" fill="#0029a6"></path></svg>