<svg id="visual" viewBox="0 0 960 540" width="960" height="540" xmlns="http://www.w3.org/2000/svg" xmlns:xlink="http://www.w3.org/1999/xlink" version="1.1"><rect x="0" y="0" width="960" height="540" fill="#1e1e1e"></rect><path d="M0 183L26.7 175.8C53.3 168.7 106.7 154.3 160 156.8C213.3 159.3 266.7 178.7 320 179.7C373.3 180.7 426.7 163.3 480 158.5C533.3 153.7 586.7 161.3 640 171.8C693.3 182.3 746.7 195.7 800 197.7C853.3 199.7 906.7 190.3 933.3 185.7L960 181L960 0L933.3 0C906.7 0 853.3 0 800 0C746.7 0 693.3 0 640 0C586.7 0 533.3 0 480 0C426.7 0 373.3 0 320 0C266.7 0 213.3 0 160 0C106.7 0 53.3 0 26.7 0L0 0Z" fill="#0078f0"></path><path d="M0 119L26.7 125C53.3 131 106.7 143 160 142.5C213.3 142 266.7 129 320 127.7C373.3 126.3 426.7 136.7 480 135.2C533.3 133.7 586.7 120.3 640 117.2C693.3 114 746.7 121 800 125C853.3 129 906.7 130 933.3 130.5L960 131L960 0L933.3 0C906.7 0 853.3 0 800 0C746.7 0 693.3 0 640 0C586.7 0 533.3 0 480 0C426.7 0 373.3 0 320 0C266.7 0 213.3 0 160 0C106.7 0 53.3 0 26.7 0L0 0Z" fill="#005ed8"></path><path d="M0 97L26.7 100.5C53.3 104 106.7 111 160 106.2C213.3 101.3 266.7 84.7 320 78.7C373.3 72.7 426.7 77.3 480 85.5C533.3 93.7 586.7 105.3 640 105C693.3 104.7 746.7 92.3 800 91.7C853.3 91 906.7 102 933.3 107.5L960 113L960 0L933.3 0C906.7 0 853.3 0 800 0C746.7 0 693.3 0 640 0C586.7 0 533.3 0 480 0C426.7 0 373.3 0 320 0C266.7 0 213.3 0 160 0C106.7 0 53.3 0 26.7 0L0 0Z" fill="#0044c0"></path><path d="M0 48L26.7 51.3C53.3 54.7 106.7 61.3 160 59.3C213.3 57.3 266.7 46.7 320 47C373.3 47.3 426.7 58.7 480 57C533.3 55.3 586.7 40.7 640 41.7C693.3 42.7 746.7 59.3 800 61.5C853.3 63.7 906.7 51.3 933.3 45.2L960 39L960 0L933.3 0C906.7 0 853.3 0 800 0C746.7 0 693.3 0 640 0C586.7 0 533.3 0 480 0C426.7 0 373.3 0 320 0C266.7 0 213.3 0 160 0C106.7 0 53.3 0 26.7 0L0 0Z" fill="#0029a6"></path></svg>